STARTFONT 2.1
COMMENT modified by BDFEdit (c) Olorin <olorins@hotmail.com>
FONT cursor
SIZE 31 78 78
FONTBOUNDINGBOX 64 64 32 32
STARTPROPERTIES 3
FONT_ASCENT 16
FONT_DESCENT 17
DEFAULT_CHAR 27
ENDPROPERTIES
CHARS 154
STARTCHAR X_cursor
ENCODING 0
SWIDTH 483
DWIDTH 15
BBX 14 14 -6 -8
ATTRIBUTES 
BITMAP
E01C
F03C
F87C
7CF8
3FF0
1FE0
0FC0
0FC0
1FE0
3FF0
7CF8
F87C
F03C
E01C
ENDCHAR
STARTCHAR X_cursor_mask
ENCODING 1
SWIDTH 547
DWIDTH 17
BBX 16 16 -7 -9
ATTRIBUTES 
BITMAP
F00F
F81F
FC3F
FE7F
7FFE
3FFC
1FF8
0FF0
0FF0
1FF8
3FFC
7FFE
FE7F
FC3F
F81F
F00F
ENDCHAR
STARTCHAR arrow
ENCODING 2
SWIDTH 483
DWIDTH 15
BBX 14 14 -13 -14
ATTRIBUTES 
BITMAP
000C
003C
00F8
03F8
0FF0
3FF0
03E0
07E0
0EC0
1CC0
3880
7080
E000
4000
ENDCHAR
STARTCHAR arrow_mask
ENCODING 3
SWIDTH 547
DWIDTH 17
BBX 16 16 -14 -15
ATTRIBUTES 
BITMAP
0007
001F
007F
01FE
07FE
1FFC
3FFC
3FF8
07F8
0FF0
1FF0
3EE0
7CE0
F840
7000
2000
ENDCHAR
STARTCHAR based_arrow_down
ENCODING 4
SWIDTH 290
DWIDTH 9
BBX 8 10 -3 -1
ATTRIBUTES 
BITMAP
FF
00
FF
18
18
18
18
5A
3C
18
ENDCHAR
STARTCHAR based_arrow_down_mask
ENCODING 5
SWIDTH 354
DWIDTH 11
BBX 10 12 -4 -2
ATTRIBUTES 
BITMAP
FFC0
FFC0
FFC0
FFC0
FFC0
1E00
1E00
7F80
7F80
7F80
3F00
1E00
ENDCHAR
STARTCHAR based_arrow_up
ENCODING 6
SWIDTH 290
DWIDTH 9
BBX 8 10 -3 -1
ATTRIBUTES 
BITMAP
18
3C
5A
18
18
18
18
FF
00
FF
ENDCHAR
STARTCHAR based_arrow_up_mask
ENCODING 7
SWIDTH 354
DWIDTH 11
BBX 10 12 -4 -2
ATTRIBUTES 
BITMAP
0C00
1E00
7F80
7F80
7F80
1E00
1E00
FFC0
FFC0
FFC0
FFC0
FFC0
ENDCHAR
STARTCHAR boat
ENCODING 8
SWIDTH 1128
DWIDTH 35
BBX 34 32 -36 -5
ATTRIBUTES 
BITMAP
0000018000
000007E000
0000003800
0000000000
0000040000
2000060000
3000070000
3800060000
7C00040000
7E00000000
EF00060000
6F800F0000
5DC00F1000
5BE00E1000
DBE00E1000
5BE00C1800
5BE8001C00
7BEC0E3C00
3DEE0E3E00
0FEE0E3E00
040F1C3F00
0000183F00
0000000180
07E0000040
07F0000000
03FC000000
00FC003E00
0077FCF800
003003E000
003FFFC000
001FFFC000
000FFF0000
ENDCHAR
STARTCHAR boat_mask
ENCODING 9
SWIDTH 547
DWIDTH 17
BBX 16 9 -14 -5
ATTRIBUTES 
BITMAP
0700
0FC0
9FE0
FFFF
FFFF
FFFF
FFF8
FFE0
FFC0
ENDCHAR
STARTCHAR bogosity
ENCODING 10
SWIDTH 515
DWIDTH 16
BBX 15 16 -7 -9
ATTRIBUTES 
BITMAP
FBBE
8AA2
EAAE
2AA8
EEEE
8002
AEEA
AAAA
AAAA
AEEA
8002
EEEE
2AA8
EAAE
8AA2
FBBE
ENDCHAR
STARTCHAR bogosity_mask
ENCODING 11
SWIDTH 515
DWIDTH 16
BBX 15 16 -7 -9
ATTRIBUTES 
BITMAP
FBBE
FBBE
FBBE
3BB8
FFFE
FFFE
FFFE
FBBE
FBBE
FFFE
FFFE
FFFE
3BB8
FBBE
FBBE
FBBE
ENDCHAR
STARTCHAR bottom_left_corner
ENCODING 12
SWIDTH 580
DWIDTH 18
BBX 17 17 -2 -3
ATTRIBUTES 
BITMAP
300000
780000
FC3E00
301E00
301E00
303E00
307200
30E000
31C000
338000
370000
3E0200
3C0300
3FFF80
3FFF80
000300
000200
ENDCHAR
STARTCHAR bottom_left_corner_mask
ENCODING 13
SWIDTH 547
DWIDTH 17
BBX 16 16 -1 -2
ATTRIBUTES 
BITMAP
F000
F000
F70C
F71C
F738
F770
F7E0
F7C0
F7FC
F7FC
F7FC
F000
FFFF
FFFF
FFFF
FFFF
ENDCHAR
STARTCHAR bottom_right_corner
ENCODING 14
SWIDTH 547
DWIDTH 17
BBX 16 16 -14 -2
ATTRIBUTES 
BITMAP
000F
0009
30E9
28A9
14A9
0AA9
05A9
02A9
3F29
2029
3FE9
0009
FFF9
8001
8001
FFFF
ENDCHAR
STARTCHAR bottom_right_corner_mask
ENCODING 15
SWIDTH 547
DWIDTH 17
BBX 16 16 -14 -2
ATTRIBUTES 
BITMAP
000F
000F
30EF
38EF
1CEF
0EEF
07EF
03EF
3FEF
3FEF
3FEF
000F
FFFF
FFFF
FFFF
FFFF
ENDCHAR
STARTCHAR bottom_side
ENCODING 16
SWIDTH 193
DWIDTH 6
BBX 5 13 -2 -7
ATTRIBUTES 
BITMAP
20
70
F8
70
70
70
70
70
70
70
F8
70
20
ENDCHAR
STARTCHAR bottom_side_mask
ENCODING 17
SWIDTH 515
DWIDTH 16
BBX 15 16 -7 -2
ATTRIBUTES 
BITMAP
0380
0380
0380
0380
0380
0380
3398
3BB8
1FF0
0FE0
07C0
0380
FFFE
FFFE
FFFE
FFFE
ENDCHAR
STARTCHAR bottom_tee
ENCODING 18
SWIDTH 547
DWIDTH 17
BBX 16 12 -8 -2
ATTRIBUTES 
BITMAP
03C0
0240
0240
0240
0240
0240
0240
0240
FE7F
8001
8001
FFFF
ENDCHAR
STARTCHAR bottom_tee_mask
ENCODING 19
SWIDTH 547
DWIDTH 17
BBX 16 12 -8 -2
ATTRIBUTES 
BITMAP
03C0
03C0
03C0
03C0
03C0
03C0
03C0
03C0
FFFF
FFFF
FFFF
FFFF
ENDCHAR
STARTCHAR box_spiral
ENCODING 20
SWIDTH 515
DWIDTH 16
BBX 15 16 -7 -8
ATTRIBUTES 
BITMAP
0002
FFFE
8002
BFFA
A00A
AFEA
A82A
ABAA
AAAA
A8AA
AFAA
A02A
BFEA
800A
FFFA
0002
ENDCHAR
STARTCHAR box_spiral_mask
ENCODING 21
SWIDTH 547
DWIDTH 17
BBX 16 16 -8 -8
ATTRIBUTES 
BITMAP
FFFF
FFFF
FFFF
FFFF
FFFF
FFFF
FFFF
FFFF
FFFF
FFFF
FFFF
FFFF
FFFF
FFFF
FFFF
FFFF
ENDCHAR
STARTCHAR center_ptr
ENCODING 22
SWIDTH 354
DWIDTH 11
BBX 10 14 -4 -14
ATTRIBUTES 
BITMAP
0C00
0C00
1E00
1E00
3F00
3F00
7F80
7F80
CCC0
8C40
0C00
0C00
0C00
0C00
ENDCHAR
STARTCHAR center_ptr_mask
ENCODING 23
SWIDTH 418
DWIDTH 13
BBX 12 16 -5 -15
ATTRIBUTES 
BITMAP
0F00
0F00
1F80
1F80
3FC0
3FC0
7FE0
7FE0
FFF0
FFF0
FFF0
EF70
0F00
0F00
0F00
0F00
ENDCHAR
STARTCHAR circle
ENCODING 24
SWIDTH 483
DWIDTH 15
BBX 14 14 -7 -7
ATTRIBUTES 
BITMAP
0780
1FE0
3FF0
7878
7038
E01C
E01C
E01C
E01C
7038
7878
3FF0
1FE0
0780
ENDCHAR
STARTCHAR circle_mask
ENCODING 25
SWIDTH 547
DWIDTH 17
BBX 16 16 -8 -8
ATTRIBUTES 
BITMAP
07E0
1FF8
3FFC
7FFE
7FFE
FC3F
F81F
F81F
F81F
F81F
FC3F
7FFE
7FFE
3FFC
1FF8
07E0
ENDCHAR
STARTCHAR clock
ENCODING 26
SWIDTH 515
DWIDTH 16
BBX 15 16 -6 -13
ATTRIBUTES 
BITMAP
4008
8804
1322
2492
21D2
1722
0842
8004
8484
8484
8484
8844
0482
0302
0002
0002
ENDCHAR
STARTCHAR clock_mask
ENCODING 27
SWIDTH 515
DWIDTH 16
BBX 15 16 -6 -13
ATTRIBUTES 
BITMAP
7FF8
EF9C
DBEE
B7B6
BFF6
9F66
CFCE
FFFC
D7AC
D7AC
D7AC
DFEC
D7AE
F33E
FFFE
FFFE
ENDCHAR
STARTCHAR coffee_mug
ENCODING 28
SWIDTH 547
DWIDTH 17
BBX 16 14 -7 -6
ATTRIBUTES 
BITMAP
1FF0
1FF9
2FE5
B01D
3FFD
3FFD
BFFD
3FFD
26E5
9555
1455
2565
BFFD
3FFD
ENDCHAR
STARTCHAR coffee_mug_mask
ENCODING 29
SWIDTH 547
DWIDTH 17
BBX 16 16 -7 -7
ATTRIBUTES 
BITMAP
1FF0
3FF8
7FFF
7FFF
FFFF
FFFF
FFFF
FFFF
7FFF
7FFF
FFFF
FFFF
FFFF
FFFF
7FFF
3FFC
ENDCHAR
STARTCHAR cross
ENCODING 30
SWIDTH -4060
DWIDTH -126
BBX -127 -127 96 31
ATTRIBUTES 
BITMAP
ENDCHAR
STARTCHAR cross_mask
ENCODING 31
SWIDTH 547
DWIDTH 17
BBX 16 16 -7 -9
ATTRIBUTES 
BITMAP
07C0
07C0
07C0
07C0
07C0
FFFF
FFFF
FFFF
FFFF
FFFF
07C0
07C0
07C0
07C0
07C0
07C0
ENDCHAR
STARTCHAR cross_reverse
ENCODING 32
SWIDTH 547
DWIDTH 17
BBX 16 15 -7 -8
ATTRIBUTES 
BITMAP
2448
1451
8C62
4444
2008
F01F
0000
0100
0000
F01F
2008
4444
8C62
1451
2448
ENDCHAR
STARTCHAR cross_reverse_mask
ENCODING 33
SWIDTH 547
DWIDTH 17
BBX 16 15 -7 -8
ATTRIBUTES 
BITMAP
66CC
B6DB
DEF6
6EEC
36D8
FABF
FC7F
0100
FC7F
FABF
36D8
6EEC
DEF6
B6DB
66CC
ENDCHAR
STARTCHAR crosshair
ENCODING 34
SWIDTH -4060
DWIDTH -126
BBX -127 -127 96 31
ATTRIBUTES 
BITMAP
ENDCHAR
STARTCHAR crosshair_mask
ENCODING 35
SWIDTH 547
DWIDTH 17
BBX 16 16 -7 -9
ATTRIBUTES 
BITMAP
0380
0380
0380
0380
0380
0380
FFFF
FFFF
FFFF
0380
0380
0380
0380
0380
0380
0380
ENDCHAR
STARTCHAR diamond_cross
ENCODING 36
SWIDTH 547
DWIDTH 17
BBX 16 16 -7 -9
ATTRIBUTES 
BITMAP
0540
0920
1550
2928
5114
A10A
0101
FEFF
0101
A10A
5114
2928
1550
0920
0540
0380
ENDCHAR
STARTCHAR diamond_cross_mask
ENCODING 37
SWIDTH 547
DWIDTH 17
BBX 16 16 -7 -9
ATTRIBUTES 
BITMAP
07C0
0FE0
1FF0
3BB8
739C
E38E
FFFF
FEFF
FFFF
E38E
739C
3BB8
1FF0
0FE0
07C0
0380
ENDCHAR
STARTCHAR dot
ENCODING 38
SWIDTH 354
DWIDTH 11
BBX 10 10 -5 -5
ATTRIBUTES 
BITMAP
1E00
7F80
7F80
FFC0
FFC0
FFC0
FFC0
7F80
7F80
1E00
ENDCHAR
STARTCHAR dot_mask
ENCODING 39
SWIDTH 418
DWIDTH 13
BBX 12 12 -6 -6
ATTRIBUTES 
BITMAP
1F80
7FE0
7FE0
FFF0
FFF0
FFF0
FFF0
FFF0
FFF0
7FE0
7FE0
1F80
ENDCHAR
STARTCHAR dotbox
ENCODING 40
SWIDTH 483
DWIDTH 15
BBX 14 14 -7 -8
ATTRIBUTES 
BITMAP
FFFC
8004
BFF4
A014
A014
A794
A494
A494
A794
A014
A014
BFF4
8004
FFFC
ENDCHAR
STARTCHAR dotbox_mask
ENCODING 41
SWIDTH 483
DWIDTH 15
BBX 14 14 -7 -8
ATTRIBUTES 
BITMAP
FFFC
FFFC
FFFC
E01C
E01C
E79C
E79C
E79C
E79C
E01C
E01C
FFFC
FFFC
FFFC
ENDCHAR
STARTCHAR double_arrow
ENCODING 42
SWIDTH 418
DWIDTH 13
BBX 12 16 -6 -8
ATTRIBUTES 
BITMAP
0F00
1980
30C0
6060
C930
9990
F9F0
0900
0900
F9F0
9990
C930
6060
30C0
1980
0F00
ENDCHAR
STARTCHAR double_arrow_mask
ENCODING 43
SWIDTH 418
DWIDTH 13
BBX 12 16 -6 -8
ATTRIBUTES 
BITMAP
0F00
1F80
3FC0
7FE0
FFF0
FFF0
FFF0
0F00
0F00
FFF0
FFF0
FFF0
7FE0
3FC0
1F80
0F00
ENDCHAR
STARTCHAR draft_large
ENCODING 44
SWIDTH 483
DWIDTH 15
BBX 14 14 -14 -15
ATTRIBUTES 
BITMAP
0004
0018
0078
01F0
07F0
1FE0
01E0
02C0
04C0
0880
1080
2000
4000
8000
ENDCHAR
STARTCHAR draft_large_mask
ENCODING 45
SWIDTH 515
DWIDTH 16
BBX 15 16 -14 -16
ATTRIBUTES 
BITMAP
0006
001E
007E
01FC
07F8
1FF8
7FF0
7FF0
07E0
0FE0
1DC0
39C0
7180
E180
C000
8000
ENDCHAR
STARTCHAR draft_small
ENCODING 46
SWIDTH 451
DWIDTH 14
BBX 13 13 -13 -14
ATTRIBUTES 
BITMAP
0008
0030
00F0
03E0
00E0
0140
0240
0400
0800
1000
2000
4000
8000
ENDCHAR
STARTCHAR draft_small_mask
ENCODING 47
SWIDTH 515
DWIDTH 16
BBX 15 15 -14 -15
ATTRIBUTES 
BITMAP
0006
001E
007C
01FC
07F8
07F8
01F0
03F0
0760
0E40
1C00
3800
7000
E000
C000
ENDCHAR
STARTCHAR draped_box
ENCODING 48
SWIDTH 483
DWIDTH 15
BBX 14 14 -7 -8
ATTRIBUTES 
BITMAP
FFFC
8004
8B44
9324
A494
8B44
B4B4
B4B4
8B44
A494
9324
8B44
8004
FFFC
ENDCHAR
STARTCHAR draped_box_mask
ENCODING 49
SWIDTH 483
DWIDTH 15
BBX 14 14 -7 -8
ATTRIBUTES 
BITMAP
FFFC
FFFC
CFCC
DFEC
FCFC
FB7C
F7BC
F7BC
FB7C
FCFC
DFEC
CFCC
FFFC
FFFC
ENDCHAR
STARTCHAR exchange
ENCODING 50
SWIDTH 483
DWIDTH 15
BBX 14 16 -6 -9
ATTRIBUTES 
BITMAP
0300
8FC0
DCE0
F830
F010
F800
FC00
0000
0000
00FC
007C
203C
307C
1CEC
0FC4
0300
ENDCHAR
STARTCHAR exchange_mask
ENCODING 51
SWIDTH 547
DWIDTH 17
BBX 16 16 -7 -9
ATTRIBUTES 
BITMAP
C7E0
EFF0
FFF8
FFFC
FC1C
FF0C
FF00
FF00
00FF
00FF
307F
383F
3FFF
1FFF
0FF7
07E3
ENDCHAR
STARTCHAR fleur
ENCODING 52
SWIDTH 644
DWIDTH 20
BBX 19 19 -9 -10
ATTRIBUTES 
BITMAP
004000
00E000
01F000
03F800
000000
004000
104100
304180
7041C0
F7FDE0
7041C0
304180
104100
004000
000000
03F800
01F000
00E000
004000
ENDCHAR
STARTCHAR fleur_mask
ENCODING 53
SWIDTH 547
DWIDTH 17
BBX 16 16 -8 -8
ATTRIBUTES 
BITMAP
03C0
03E0
07E0
0FF0
17E8
3BDC
FFFF
FFFF
FFFF
FFFF
3BDC
17E8
0FF0
07E0
03C0
03C0
ENDCHAR
STARTCHAR gobbler
ENCODING 54
SWIDTH 547
DWIDTH 17
BBX 16 16 -14 -13
ATTRIBUTES 
BITMAP
00FC
0084
C08F
7FCC
604F
000C
01CC
03CC
9FC4
FF0C
6018
17F0
1400
1400
3700
2100
ENDCHAR
STARTCHAR gobbler_mask
ENCODING 55
SWIDTH 547
DWIDTH 17
BBX 16 16 -14 -13
ATTRIBUTES 
BITMAP
00FC
00FC
C0FF
FFFF
FFFF
FFFC
FFFC
FFFC
FFFC
FFFC
7FF8
1FF0
1C00
1C00
3F00
3F00
ENDCHAR
STARTCHAR gumby
ENCODING 56
SWIDTH 547
DWIDTH 17
BBX 16 14 -2 -15
ATTRIBUTES 
BITMAP
CF00
2780
1540
27C0
245C
07C2
C7C0
37C8
07C8
06D0
06C8
06C7
0EE0
1EF0
ENDCHAR
STARTCHAR gumby_mask
ENCODING 57
SWIDTH 547
DWIDTH 17
BBX 16 16 -2 -16
ATTRIBUTES 
BITMAP
3F00
DF80
EFC0
FFE0
EFE0
EFFC
FFFE
FFFF
3FEF
0FEF
0FFF
0FEF
0FE7
1FF0
3FF8
3EF8
ENDCHAR
STARTCHAR hand1
ENCODING 58
SWIDTH 612
DWIDTH 19
BBX 18 27 0 -27
ATTRIBUTES 
BITMAP
C00000
C00000
C00000
600000
6DB000
6ED800
36DC00
376C00
33FE00
3FFE00
DFFE00
DFFE00
FFFE00
FFFE00
7FFE00
3FFE00
1FFC00
0FFC00
03FC00
00E300
001F80
00FF80
009FC0
00FFC0
007F00
007C00
004000
ENDCHAR
STARTCHAR hand1_mask
ENCODING 59
SWIDTH 451
DWIDTH 14
BBX 13 16 -12 -16
ATTRIBUTES 
BITMAP
0038
00F8
03F0
07E0
0FC0
1FE0
7FF0
FFF0
FFF0
FFF0
FFE0
FFC0
FF80
FE00
FC00
7800
ENDCHAR
STARTCHAR hand2
ENCODING 60
SWIDTH 547
DWIDTH 17
BBX 16 16 0 -15
ATTRIBUTES 
BITMAP
7F80
8040
7FA0
81D0
6FE8
11E8
2FE8
11D4
2FBA
137D
0CFA
05B4
02E8
0150
00A0
0040
ENDCHAR
STARTCHAR hand2_mask
ENCODING 61
SWIDTH 547
DWIDTH 17
BBX 16 16 0 -15
ATTRIBUTES 
BITMAP
7F80
FFC0
FFE0
FFF0
7FF8
1FF8
3FF8
1FFC
3FFE
1FFF
0FFE
07FC
03F8
01F0
00E0
0040
ENDCHAR
STARTCHAR heart
ENCODING 62
SWIDTH 451
DWIDTH 14
BBX 13 12 -5 -5
ATTRIBUTES 
BITMAP
38E0
4510
8208
8008
8008
8508
4210
2020
1040
0880
0700
0200
ENDCHAR
STARTCHAR heart_mask
ENCODING 63
SWIDTH 515
DWIDTH 16
BBX 15 14 -6 -6
ATTRIBUTES 
BITMAP
3EF8
7FFC
E38E
C106
C006
C006
C286
E10E
701C
3838
1C70
0FE0
07C0
0380
ENDCHAR
STARTCHAR icon
ENCODING 64
SWIDTH 483
DWIDTH 15
BBX 14 14 -7 -7
ATTRIBUTES 
BITMAP
5554
AAA8
5554
BFE8
5FF4
BFE8
5FF4
BFE8
5FF4
BFE8
5FF4
AAA8
5554
AAA8
ENDCHAR
STARTCHAR icon_mask
ENCODING 65
SWIDTH 547
DWIDTH 17
BBX 16 16 -8 -8
ATTRIBUTES 
BITMAP
FFFF
FFFF
FFFF
FFFF
FFFF
FFFF
FFFF
FFFF
FFFF
FFFF
FFFF
FFFF
FFFF
FFFF
FFFF
FFFF
ENDCHAR
STARTCHAR iron_cross
ENCODING 66
SWIDTH 547
DWIDTH 17
BBX 16 16 -8 -9
ATTRIBUTES 
BITMAP
3FFC
4002
6006
B00D
9819
8C31
8661
8001
8001
8661
8C31
9819
B00D
6006
4002
3FFC
ENDCHAR
STARTCHAR iron_cross_mask
ENCODING 67
SWIDTH 547
DWIDTH 17
BBX 16 16 -8 -9
ATTRIBUTES 
BITMAP
3FFC
7FFE
7FFE
FFFF
FFFF
FFFF
FFFF
FFFF
FFFF
FFFF
FFFF
FFFF
FFFF
7FFE
7FFE
3FFC
ENDCHAR
STARTCHAR left_ptr
ENCODING 68
SWIDTH 322
DWIDTH 10
BBX 9 18 1 -19
ATTRIBUTES 
BITMAP
8000
C000
E000
F000
F800
FC00
FE00
FF00
FF80
FC00
EC00
CC00
8600
0600
0300
0300
0180
0180
ENDCHAR
STARTCHAR left_ptr_mask
ENCODING 69
SWIDTH 354
DWIDTH 11
BBX 10 16 -1 -15
ATTRIBUTES 
BITMAP
C000
E000
F000
F800
FC00
FE00
FF00
FF80
FFC0
FFC0
FE00
EF00
CF00
0780
0780
0300
ENDCHAR
STARTCHAR left_side
ENCODING 70
SWIDTH 483
DWIDTH 15
BBX 14 13 0 -7
ATTRIBUTES 
BITMAP
C000
C000
C100
C200
C400
C800
DFFC
C800
C400
C200
C100
C000
C000
ENDCHAR
STARTCHAR left_side_mask
ENCODING 71
SWIDTH 547
DWIDTH 17
BBX 16 15 -1 -8
ATTRIBUTES 
BITMAP
F000
F000
F0C0
F1C0
F380
F700
FFFF
FFFF
FFFF
F700
F380
F1C0
F0C0
F000
F000
ENDCHAR
STARTCHAR left_tee
ENCODING 72
SWIDTH 418
DWIDTH 13
BBX 12 16 -1 -8
ATTRIBUTES 
BITMAP
F000
9000
9000
9000
9000
9000
9FF0
8010
8010
9FF0
9000
9000
9000
9000
9000
F000
ENDCHAR
STARTCHAR left_tee_mask
ENCODING 73
SWIDTH 418
DWIDTH 13
BBX 12 16 -1 -8
ATTRIBUTES 
BITMAP
F000
F000
F000
F000
F000
F000
FFF0
FFF0
FFF0
FFF0
F000
F000
F000
F000
F000
F000
ENDCHAR
STARTCHAR leftbutton
ENCODING 74
SWIDTH 515
DWIDTH 16
BBX 15 16 -8 -8
ATTRIBUTES 
BITMAP
7FFC
8002
8002
BBBA
BAAA
BAAA
BAAA
BAAA
BBBA
8002
8002
8002
8002
8002
8002
7FFC
ENDCHAR
STARTCHAR leftbutton_mask
ENCODING 75
SWIDTH 515
DWIDTH 16
BBX 15 16 -8 -8
ATTRIBUTES 
BITMAP
7FFC
FFFE
FFFE
FFFE
FFFE
FFFE
FFFE
FFFE
FFFE
FFFE
FFFE
FFFE
FFFE
FFFE
FFFE
7FFC
ENDCHAR
STARTCHAR ll_angle
ENCODING 76
SWIDTH 418
DWIDTH 13
BBX 12 12 -1 -2
ATTRIBUTES 
BITMAP
F000
9000
9000
9000
9000
9000
9000
9000
9FF0
8010
8010
FFF0
ENDCHAR
STARTCHAR ll_angle_mask
ENCODING 77
SWIDTH 418
DWIDTH 13
BBX 12 12 -1 -2
ATTRIBUTES 
BITMAP
F000
F000
F000
F000
F000
F000
F000
F000
FFF0
FFF0
FFF0
FFF0
ENDCHAR
STARTCHAR lr_angle
ENCODING 78
SWIDTH 418
DWIDTH 13
BBX 12 12 -10 -2
ATTRIBUTES 
BITMAP
00F0
0090
0090
0090
0090
0090
0090
0090
FF90
8010
8010
FFF0
ENDCHAR
STARTCHAR lr_angle_mask
ENCODING 79
SWIDTH 418
DWIDTH 13
BBX 12 12 -10 -2
ATTRIBUTES 
BITMAP
00F0
00F0
00F0
00F0
00F0
00F0
00F0
00F0
FFF0
FFF0
FFF0
FFF0
ENDCHAR
STARTCHAR man
ENCODING 80
SWIDTH 547
DWIDTH 17
BBX 16 16 -14 -11
ATTRIBUTES 
BITMAP
1C60
2100
3D78
4282
A440
5BB4
228B
1AB0
03A0
0540
0BA0
16D0
2D68
6AAC
8443
0440
ENDCHAR
STARTCHAR man_mask
ENCODING 81
SWIDTH 547
DWIDTH 17
BBX 16 16 -14 -11
ATTRIBUTES 
BITMAP
1FE0
3FF0
3FF8
C382
E7C7
7FFF
3FFB
1FF0
07E0
07C0
0FE0
1FF0
3FF8
7EFC
FC7F
FC7F
ENDCHAR
STARTCHAR middlebutton
ENCODING 82
SWIDTH 515
DWIDTH 16
BBX 15 16 -8 -8
ATTRIBUTES 
BITMAP
7FFC
8002
8002
BBBA
ABAA
ABAA
ABAA
ABAA
BBBA
8002
8002
8002
8002
8002
8002
7FFC
ENDCHAR
STARTCHAR middlebutton_mask
ENCODING 83
SWIDTH 515
DWIDTH 16
BBX 15 16 -8 -8
ATTRIBUTES 
BITMAP
7FFC
FFFE
FFFE
FFFE
FFFE
FFFE
FFFE
FFFE
FFFE
FFFE
FFFE
FFFE
FFFE
FFFE
FFFE
7FFC
ENDCHAR
STARTCHAR mouse
ENCODING 84
SWIDTH 547
DWIDTH 17
BBX 16 16 -4 -15
ATTRIBUTES 
BITMAP
0880
1200
0900
0400
0000
7FF8
4CC9
4CC9
4CC9
7FF9
7FF9
9FE3
2797
1860
0FC0
0780
ENDCHAR
STARTCHAR mouse_mask
ENCODING 85
SWIDTH 547
DWIDTH 17
BBX 16 16 -4 -15
ATTRIBUTES 
BITMAP
0F80
1E00
0F00
0700
7FF8
FFFC
FFFF
FFFF
FFFF
FFFF
FFFF
FFFF
3FF7
1FE0
0FC0
0780
ENDCHAR
STARTCHAR pencil
ENCODING 86
SWIDTH 451
DWIDTH 14
BBX 13 16 -11 -1
ATTRIBUTES 
BITMAP
C400
BA00
B900
5A00
0280
2F00
1740
0780
0BA0
01C0
05D0
02E8
0108
0088
0048
0028
ENDCHAR
STARTCHAR pencil_mask
ENCODING 87
SWIDTH 451
DWIDTH 14
BBX 13 16 -11 -1
ATTRIBUTES 
BITMAP
FC00
FE00
FF00
7F00
3F80
3F80
1FC0
0FC0
0FE0
07E0
07F0
03F8
01F8
00F8
0078
0038
ENDCHAR
STARTCHAR pirate
ENCODING 88
SWIDTH 547
DWIDTH 17
BBX 16 16 -7 -4
ATTRIBUTES 
BITMAP
0840
1020
2010
4CC8
4CC8
2010
1020
8841
0843
4849
B494
4008
0000
6001
0FC1
703A
ENDCHAR
STARTCHAR pirate_mask
ENCODING 89
SWIDTH 547
DWIDTH 17
BBX 16 16 -7 -4
ATTRIBUTES 
BITMAP
0FC0
1FE0
3FF0
7FF8
7FF8
3FF0
1FE0
8FC1
8FC7
CFCF
F79C
7878
0780
7FE3
FFFF
F03E
ENDCHAR
STARTCHAR plus
ENCODING 90
SWIDTH 418
DWIDTH 13
BBX 12 12 -5 -6
ATTRIBUTES 
BITMAP
0F00
0900
0900
0900
F9F0
8010
8010
F9F0
0900
0900
0900
0F00
ENDCHAR
STARTCHAR plus_mask
ENCODING 91
SWIDTH 418
DWIDTH 13
BBX 12 12 -5 -6
ATTRIBUTES 
BITMAP
0F00
0F00
0F00
0F00
FFF0
FFF0
FFF0
FFF0
0F00
0F00
0F00
0F00
ENDCHAR
STARTCHAR question_arrow
ENCODING 92
SWIDTH 386
DWIDTH 12
BBX 11 16 -5 -8
ATTRIBUTES 
BITMAP
1F00
2080
4040
8E20
9120
8920
4A20
3C40
1080
1100
1500
3580
4440
2480
1100
0A00
ENDCHAR
STARTCHAR question_arrow_mask
ENCODING 93
SWIDTH 386
DWIDTH 12
BBX 11 16 -5 -8
ATTRIBUTES 
BITMAP
1F00
3F80
7FC0
FFE0
F1E0
F9E0
7BE0
3FC0
1F80
1F00
1F00
3F80
7FC0
3F80
1F00
0E00
ENDCHAR
STARTCHAR right_ptr
ENCODING 94
SWIDTH 290
DWIDTH 9
BBX 8 14 -7 -14
ATTRIBUTES 
BITMAP
01
03
07
0F
1F
3F
7F
FF
1F
1B
31
30
60
60
ENDCHAR
STARTCHAR right_ptr_mask
ENCODING 95
SWIDTH 354
DWIDTH 11
BBX 10 16 -8 -15
ATTRIBUTES 
BITMAP
00C0
01C0
03C0
07C0
0FC0
1FC0
3FC0
7FC0
FFC0
FFC0
1FC0
3DC0
3CC0
7800
7800
3000
ENDCHAR
STARTCHAR right_side
ENCODING 96
SWIDTH 483
DWIDTH 15
BBX 14 13 -13 -7
ATTRIBUTES 
BITMAP
000C
000C
020C
010C
008C
004C
FFEC
004C
008C
010C
020C
000C
000C
ENDCHAR
STARTCHAR right_side_mask
ENCODING 97
SWIDTH 547
DWIDTH 17
BBX 16 15 -14 -8
ATTRIBUTES 
BITMAP
000F
000F
030F
038F
01CF
00EF
FFFF
FFFF
FFFF
00EF
01CF
038F
030F
000F
000F
ENDCHAR
STARTCHAR right_tee
ENCODING 98
SWIDTH 418
DWIDTH 13
BBX 12 16 -10 -8
ATTRIBUTES 
BITMAP
00F0
0090
0090
0090
0090
0090
FF90
8010
8010
FF90
0090
0090
0090
0090
0090
00F0
ENDCHAR
STARTCHAR right_tee_mask
ENCODING 99
SWIDTH 418
DWIDTH 13
BBX 12 16 -10 -8
ATTRIBUTES 
BITMAP
00F0
00F0
00F0
00F0
00F0
00F0
FFF0
FFF0
FFF0
FFF0
00F0
00F0
00F0
00F0
00F0
00F0
ENDCHAR
STARTCHAR rightbutton
ENCODING 100
SWIDTH 515
DWIDTH 16
BBX 15 16 -8 -8
ATTRIBUTES 
BITMAP
7FFC
8002
8002
BBBA
AABA
AABA
AABA
AABA
BBBA
8002
8002
8002
8002
8002
8002
7FFC
ENDCHAR
STARTCHAR rightbutton_mask
ENCODING 101
SWIDTH 515
DWIDTH 16
BBX 15 16 -8 -8
ATTRIBUTES 
BITMAP
7FFC
FFFE
FFFE
FFFE
FFFE
FFFE
FFFE
FFFE
FFFE
FFFE
FFFE
FFFE
FFFE
FFFE
FFFE
7FFC
ENDCHAR
STARTCHAR rtl_logo
ENCODING 102
SWIDTH 547
DWIDTH 17
BBX 16 16 -7 -9
ATTRIBUTES 
BITMAP
FFFF
8001
BFDD
A055
BFD5
8015
BBD5
AA55
AA55
ABDD
A801
ABFD
AA05
BBFD
8001
FFFF
ENDCHAR
STARTCHAR rtl_logo_mask
ENCODING 103
SWIDTH 547
DWIDTH 17
BBX 16 16 -7 -9
ATTRIBUTES 
BITMAP
FFFF
FFFF
FFFF
E077
FFF7
FFF7
FFF7
EE77
EE77
EFFF
EFFF
EFFF
EE07
FFFF
FFFF
FFFF
ENDCHAR
STARTCHAR sailboat
ENCODING 104
SWIDTH 418
DWIDTH 13
BBX 12 13 -6 -14
ATTRIBUTES 
BITMAP
0100
0100
0580
0580
0D80
0DC0
1DC0
1DC0
3DE0
3DE0
7DE0
7DF0
F8E0
ENDCHAR
STARTCHAR sailboat_mask
ENCODING 105
SWIDTH 547
DWIDTH 17
BBX 16 16 -8 -16
ATTRIBUTES 
BITMAP
00C0
00E0
01E0
03F0
03F0
07F0
07F8
0FF8
0FF8
1FFC
1FFC
3FFC
3FFF
7FFF
FFF8
7FE0
ENDCHAR
STARTCHAR sb_down_arrow
ENCODING 106
SWIDTH 322
DWIDTH 10
BBX 9 16 -4 -1
ATTRIBUTES 
BITMAP
2A00
2A00
2A00
2A00
2A00
2A00
2A00
2A00
2A00
2A00
EB80
8080
4100
2200
1400
0800
ENDCHAR
STARTCHAR sb_down_arrow_mask
ENCODING 107
SWIDTH 322
DWIDTH 10
BBX 9 16 -4 -1
ATTRIBUTES 
BITMAP
3E00
3E00
3E00
3E00
3E00
3E00
3E00
3E00
3E00
3E00
FF80
FF80
7F00
3E00
1C00
0800
ENDCHAR
STARTCHAR sb_h_double_arrow
ENCODING 108
SWIDTH 515
DWIDTH 16
BBX 15 9 -7 -5
ATTRIBUTES 
BITMAP
1830
2828
4FE4
8002
0FE0
8002
4FE4
2828
1830
ENDCHAR
STARTCHAR sb_h_double_arrow_mask
ENCODING 109
SWIDTH 515
DWIDTH 16
BBX 15 9 -7 -5
ATTRIBUTES 
BITMAP
1830
3838
7FFC
FFFE
FFFE
FFFE
7FFC
3838
1830
ENDCHAR
STARTCHAR sb_left_arrow
ENCODING 110
SWIDTH 547
DWIDTH 17
BBX 16 9 0 -5
ATTRIBUTES 
BITMAP
0C00
1400
27FF
4000
87FF
4000
27FF
1400
0C00
ENDCHAR
STARTCHAR sb_left_arrow_mask
ENCODING 111
SWIDTH 547
DWIDTH 17
BBX 16 9 0 -5
ATTRIBUTES 
BITMAP
0C00
1C00
3FFF
7FFF
FFFF
7FFF
3FFF
1C00
0C00
ENDCHAR
STARTCHAR sb_right_arrow
ENCODING 112
SWIDTH 547
DWIDTH 17
BBX 16 9 -15 -5
ATTRIBUTES 
BITMAP
0030
0028
FFE4
0002
FFE1
0002
FFE4
0028
0030
ENDCHAR
STARTCHAR sb_right_arrow_mask
ENCODING 113
SWIDTH 547
DWIDTH 17
BBX 16 9 -15 -5
ATTRIBUTES 
BITMAP
0030
0038
FFFC
FFFE
FFFF
FFFE
FFFC
0038
0030
ENDCHAR
STARTCHAR sb_up_arrow
ENCODING 114
SWIDTH 322
DWIDTH 10
BBX 9 16 -4 -16
ATTRIBUTES 
BITMAP
0800
1400
2200
4100
8080
EB80
2A00
2A00
2A00
2A00
2A00
2A00
2A00
2A00
2A00
2A00
ENDCHAR
STARTCHAR sb_up_arrow_mask
ENCODING 115
SWIDTH 322
DWIDTH 10
BBX 9 16 -4 -16
ATTRIBUTES 
BITMAP
0800
1C00
3E00
7F00
FF80
FF80
3E00
3E00
3E00
3E00
3E00
3E00
3E00
3E00
3E00
3E00
ENDCHAR
STARTCHAR sb_v_double_arrow
ENCODING 116
SWIDTH 322
DWIDTH 10
BBX 9 15 -4 -8
ATTRIBUTES 
BITMAP
1400
2200
4100
8080
EB80
2A00
2A00
2A00
2A00
2A00
EB80
8080
4100
2200
1400
ENDCHAR
STARTCHAR sb_v_double_arrow_mask
ENCODING 117
SWIDTH 322
DWIDTH 10
BBX 9 15 -4 -8
ATTRIBUTES 
BITMAP
1C00
3E00
7F00
FF80
FF80
3E00
3E00
3E00
3E00
3E00
FF80
FF80
7F00
3E00
1C00
ENDCHAR
STARTCHAR shuttle
ENCODING 118
SWIDTH 515
DWIDTH 16
BBX 15 16 -11 -16
ATTRIBUTES 
BITMAP
0028
0044
0082
0010
0410
0A10
1610
1610
1610
1610
2610
4610
8010
72BA
0C42
0024
ENDCHAR
STARTCHAR shuttle_mask
ENCODING 119
SWIDTH 547
DWIDTH 17
BBX 16 16 -11 -16
ATTRIBUTES 
BITMAP
0038
007C
00FE
00FF
06FF
0EFF
1EFF
1EFF
1EFF
1EFF
3EFF
7EFF
FEFF
7EFE
0C7E
003C
ENDCHAR
STARTCHAR sizing
ENCODING 120
SWIDTH 547
DWIDTH 17
BBX 16 16 -8 -8
ATTRIBUTES 
BITMAP
FFC0
8040
BFC0
A000
AFF0
A810
ABD7
AA55
AA55
EBD5
0815
0FED
0015
03F9
0201
03FF
ENDCHAR
STARTCHAR sizing_mask
ENCODING 121
SWIDTH 547
DWIDTH 17
BBX 16 16 -8 -8
ATTRIBUTES 
BITMAP
FFC0
FFC0
FFC0
E000
EFF0
EFF0
EFF7
EE77
EE77
EFF7
0FF7
0FFF
001F
03FF
03FF
03FF
ENDCHAR
STARTCHAR spider
ENCODING 122
SWIDTH 547
DWIDTH 17
BBX 16 16 -6 -9
ATTRIBUTES 
BITMAP
4008
2010
0000
1020
8781
4848
0844
2010
2000
0860
4848
8781
1000
0840
2010
4008
ENDCHAR
STARTCHAR spider_mask
ENCODING 123
SWIDTH 547
DWIDTH 17
BBX 16 16 -6 -9
ATTRIBUTES 
BITMAP
6018
3030
1020
1860
8FC1
CFCF
6FDC
3FF0
3FE0
6FF8
CFCF
8FC1
1840
1860
3030
6018
ENDCHAR
STARTCHAR spraycan
ENCODING 124
SWIDTH 418
DWIDTH 13
BBX 12 15 -10 -14
ATTRIBUTES 
BITMAP
1830
2480
0230
4A80
8100
BD00
8D00
AD00
8D00
AD00
8D00
8D00
BD00
BD00
8100
ENDCHAR
STARTCHAR spraycan_mask
ENCODING 125
SWIDTH 418
DWIDTH 13
BBX 12 16 -10 -14
ATTRIBUTES 
BITMAP
0030
18B0
3EB0
3EB0
7EB0
FF00
FF00
FF00
FF00
FF00
FF00
FF00
FF00
FF00
FF00
FF00
ENDCHAR
STARTCHAR star
ENCODING 126
SWIDTH 547
DWIDTH 17
BBX 16 15 -7 -9
ATTRIBUTES 
BITMAP
0100
0100
0440
0280
0820
1838
C006
0001
C006
3018
2108
4284
4444
4824
5014
ENDCHAR
STARTCHAR star_mask
ENCODING 127
SWIDTH 547
DWIDTH 17
BBX 16 16 -7 -9
ATTRIBUTES 
BITMAP
0100
0380
0380
06C0
06C0
0C60
1C78
F93E
C007
F83E
3938
3398
66CC
6C6C
783C
701C
ENDCHAR
STARTCHAR target
ENCODING 128
SWIDTH 547
DWIDTH 17
BBX 16 14 -7 -7
ATTRIBUTES 
BITMAP
07C0
0C60
1010
2008
4004
8102
0281
0441
0281
8102
4004
2008
1010
0440
ENDCHAR
STARTCHAR target_mask
ENCODING 129
SWIDTH 547
DWIDTH 17
BBX 16 14 -7 -7
ATTRIBUTES 
BITMAP
07C0
0FE0
1FF0
3C78
701C
E10E
C387
C6C7
C387
E10E
701C
3C78
1FF0
07C0
ENDCHAR
STARTCHAR tcross
ENCODING 130
SWIDTH 515
DWIDTH 16
BBX 15 15 -7 -8
ATTRIBUTES 
BITMAP
0380
0280
0280
0280
0280
0280
FEFE
8002
FEFE
0280
0280
0280
0280
0280
0380
ENDCHAR
STARTCHAR tcross_mask
ENCODING 131
SWIDTH 515
DWIDTH 16
BBX 15 15 -7 -8
ATTRIBUTES 
BITMAP
0380
0380
0380
0380
0380
0380
FFFE
FFFE
FFFE
0380
0380
0380
0380
0380
0380
ENDCHAR
STARTCHAR top_left_arrow
ENCODING 132
SWIDTH 483
DWIDTH 15
BBX 14 14 0 -14
ATTRIBUTES 
BITMAP
C000
F000
7C00
7F00
3FC0
3FF0
1F00
1F00
0C80
0C40
0420
0410
0008
0004
ENDCHAR
STARTCHAR top_left_arrow_mask
ENCODING 133
SWIDTH 547
DWIDTH 17
BBX 16 16 -1 -15
ATTRIBUTES 
BITMAP
E000
F800
FE00
7F80
7FE0
3FFC
3FFC
1FFC
1FC0
0FE0
0F70
0738
071C
070E
0007
0003
ENDCHAR
STARTCHAR top_left_corner
ENCODING 134
SWIDTH 483
DWIDTH 15
BBX 14 14 0 -14
ATTRIBUTES 
BITMAP
FFFC
FFFC
C000
C000
C000
C7F0
C600
C500
C480
C440
C420
C410
C000
C000
ENDCHAR
STARTCHAR top_left_corner_mask
ENCODING 135
SWIDTH 547
DWIDTH 17
BBX 16 16 -1 -15
ATTRIBUTES 
BITMAP
FFFF
FFFF
FFFF
FFFF
F000
F7FC
F7FC
F7FC
F7C0
F7E0
F770
F738
F71C
F70C
F000
F000
ENDCHAR
STARTCHAR top_right_corner
ENCODING 136
SWIDTH 483
DWIDTH 15
BBX 14 14 -13 -14
ATTRIBUTES 
BITMAP
FFFC
FFFC
000C
000C
000C
3F8C
018C
028C
048C
088C
108C
208C
000C
000C
ENDCHAR
STARTCHAR top_right_corner_mask
ENCODING 137
SWIDTH 547
DWIDTH 17
BBX 16 16 -14 -15
ATTRIBUTES 
BITMAP
FFFF
FFFF
FFFF
FFFF
000F
3FEF
3FEF
3FEF
03EF
07EF
0EEF
1CEF
38EF
30EF
000F
000F
ENDCHAR
STARTCHAR top_side
ENCODING 138
SWIDTH 451
DWIDTH 14
BBX 13 14 -6 -14
ATTRIBUTES 
BITMAP
FFF8
FFF8
0000
0200
0700
0A80
1240
2220
0200
0200
0200
0200
0200
0200
ENDCHAR
STARTCHAR top_side_mask
ENCODING 139
SWIDTH 515
DWIDTH 16
BBX 15 16 -7 -15
ATTRIBUTES 
BITMAP
FFFE
FFFE
FFFE
FFFE
0380
07C0
0FE0
1FF0
3BB8
3398
0380
0380
0380
0380
0380
0380
ENDCHAR
STARTCHAR top_tee
ENCODING 140
SWIDTH 547
DWIDTH 17
BBX 16 12 -8 -11
ATTRIBUTES 
BITMAP
FFFF
8001
8001
FE7F
0240
0240
0240
0240
0240
0240
0240
03C0
ENDCHAR
STARTCHAR top_tee_mask
ENCODING 141
SWIDTH 547
DWIDTH 17
BBX 16 12 -8 -11
ATTRIBUTES 
BITMAP
FFFF
FFFF
FFFF
FFFF
03C0
03C0
03C0
03C0
03C0
03C0
03C0
03C0
ENDCHAR
STARTCHAR trek
ENCODING 142
SWIDTH 322
DWIDTH 10
BBX 9 16 -4 -16
ATTRIBUTES 
BITMAP
1400
1C00
2200
4100
8080
8880
8080
4100
2200
5500
A280
9480
B680
AA80
AA80
A280
ENDCHAR
STARTCHAR trek_mask
ENCODING 143
SWIDTH 322
DWIDTH 10
BBX 9 16 -4 -16
ATTRIBUTES 
BITMAP
1C00
1C00
3E00
7F00
FF80
FF80
FF80
7F00
3E00
5D00
FF80
FF80
FF80
EB80
EB80
E380
ENDCHAR
STARTCHAR ul_angle
ENCODING 144
SWIDTH 418
DWIDTH 13
BBX 12 12 -1 -11
ATTRIBUTES 
BITMAP
FFF0
8010
8010
9FF0
9000
9000
9000
9000
9000
9000
9000
F000
ENDCHAR
STARTCHAR ul_angle_mask
ENCODING 145
SWIDTH 418
DWIDTH 13
BBX 12 12 -1 -11
ATTRIBUTES 
BITMAP
FFF0
FFF0
FFF0
FFF0
F000
F000
F000
F000
F000
F000
F000
F000
ENDCHAR
STARTCHAR umbrella
ENCODING 146
SWIDTH 547
DWIDTH 17
BBX 16 16 -8 -14
ATTRIBUTES 
BITMAP
176E
DDD3
B658
5837
E6CC
9EF3
F29E
0280
0280
0280
0280
02A0
02A0
0360
03E0
01C0
ENDCHAR
STARTCHAR umbrella_mask
ENCODING 147
SWIDTH 547
DWIDTH 17
BBX 16 16 -8 -14
ATTRIBUTES 
BITMAP
176E
DFFB
BFFC
7FFF
FFFC
FFFF
F39E
0380
0380
0380
0380
03E0
03E0
03E0
03E0
01C0
ENDCHAR
STARTCHAR ur_angle
ENCODING 148
SWIDTH 418
DWIDTH 13
BBX 12 12 -10 -11
ATTRIBUTES 
BITMAP
FFF0
8010
8010
FF90
0090
0090
0090
0090
0090
0090
0090
00F0
ENDCHAR
STARTCHAR ur_angle_mask
ENCODING 149
SWIDTH 418
DWIDTH 13
BBX 12 12 -10 -11
ATTRIBUTES 
BITMAP
FFF0
FFF0
FFF0
FFF0
00F0
00F0
00F0
00F0
00F0
00F0
00F0
00F0
ENDCHAR
STARTCHAR watch
ENCODING 150
SWIDTH 386
DWIDTH 12
BBX 11 20 -5 -11
ATTRIBUTES 
BITMAP
FFE0
0000
7FC0
7FC0
6AC0
75C0
3B80
1F00
0A00
0400
0400
0E00
1B00
3F80
7BC0
75C0
6AC0
5540
0000
FFC0
ENDCHAR
STARTCHAR watch_mask
ENCODING 151
SWIDTH 547
DWIDTH 17
BBX 16 16 -15 -7
ATTRIBUTES 
BITMAP
3FF0
3FF0
3FF0
7FF8
FFFC
FFFF
FFFF
FFFF
FFFF
FFFF
FFFF
FFFC
7FF8
3FF0
3FF0
3FF0
ENDCHAR
STARTCHAR xterm
ENCODING 152
SWIDTH -4060
DWIDTH -126
BBX -127 -127 96 31
ATTRIBUTES 
BITMAP
ENDCHAR
STARTCHAR xterm_mask
ENCODING 153
SWIDTH 322
DWIDTH 10
BBX 9 16 -4 -8
ATTRIBUTES 
BITMAP
F780
FF80
FF80
3E00
1C00
1C00
1C00
1C00
1C00
1C00
1C00
1C00
3E00
FF80
FF80
F780
ENDCHAR
ENDFONT
